<svg width="32" height="32" viewBox="0 0 32 32" fill="none" xmlns="http://www.w3.org/2000/svg">
<g clip-path="url(#clip0_308_4423)">
<path fill-rule="evenodd" clip-rule="evenodd" d="M20 1H12V2H9V3H8V4H6V5H5V6H4V8H3V9H2V12H1V20H2V23H3V24H4V26H5V27H6V28H8V29H9V30H12V31H20V30H23V29H24V28H26V27H27V26H28V24H29V23H30V20H31V12H30V9H29V8H28V6H27V5H26V4H24V3H23V2H20V1ZM19 5H13V6H10V7H9V8H8V9H7V10H6V13H5V19H6V22H7V23H8V24H9V25H10V26H13V27H19V26H22V25H23V24H24V23H25V22H26V19H27V13H26V10H25V9H24V8H23V7H22V6H19V5Z" fill="#131118" fill-opacity="0.16"/>
<path d="M17 9H15V17H16V18H17V19H18V20H19V21H20V20H21V19H20V18H19V17H18V16H17V9Z" fill="#131118" fill-opacity="0.16"/>
</g>
<defs>
<clipPath id="clip0_308_4423">
<rect width="30" height="30" fill="white" transform="translate(1 1)"/>
</clipPath>
</defs>
</svg>
