<svg width="40" height="40" viewBox="0 0 40 40" fill="none" xmlns="http://www.w3.org/2000/svg">
<path d="M18.75 0V3.75H17.5V7.5H16.25V11.25H15V12.5H1.25V15H3.75V17.5H7.5V20H10V21.25H11.25V25H10V28.75H8.75V32.5H7.5V35H6.25V36.25V37.5H7.5H11.25V35H13.75V32.5H16.25V30H18.75V28.75H21.25V30H23.75V32.5H26.25V35H28.75V37.5H32.5H33.75V36.25V35H32.5V32.5H31.25V28.75H30V25H28.75V21.25H30V20H32.5V17.5H36.25V15H38.75V12.5H25V11.25H23.75V7.5H22.5V3.75H21.25V0H18.75Z" fill="#6C6D73" fill-opacity="0.16"/>
</svg>
