<svg width="24" height="24" viewBox="0 0 24 24" fill="none" xmlns="http://www.w3.org/2000/svg">
<g clip-path="url(#clip0_308_1897)">
<g clip-path="url(#clip1_308_1897)">
<path d="M9 0.75H15V1.5H17.25V2.25H18V3H19.5V3.75H20.25V4.5H21V6H21.75V6.75H22.5V9H23.25V15H22.5V17.25H21.75V18H21V19.5H20.25V20.25H19.5V21H18V21.75H17.25V22.5H15V23.25H9V22.5H6.75V21.75H6V21H4.5V20.25H3.75V19.5H3V18H2.25V17.25H1.5V15H0.75V9H1.5V6.75H2.25V6H3V4.5H3.75V3.75H4.5V3H6V2.25H6.75V1.5H9V0.75Z" fill="#131118" fill-opacity="0.16"/>
<path d="M8.25 6H7.5V6.75H6.75V7.5H6V8.25H6.75V9H7.5V9.75H8.25V10.5H9V11.25H9.75V12.75H9V13.5H8.25V14.25H7.5V15H6.75V15.75H6V16.5H6.75V17.25H7.5V18H8.25V17.25H9V16.5H9.75V15.75H10.5V15H11.25V14.25H12.75V15H13.5V15.75H14.25V16.5H15V17.25H15.75V18H16.5V17.25H17.25V16.5H18V15.75H17.25V15H16.5V14.25H15.75V13.5H15V12.75H14.25V11.25H15V10.5H15.75V9.75H16.5V9H17.25V8.25H18V7.5H17.25V6.75H16.5V6H15.75V6.75H15V7.5H14.25V8.25H13.5V9H12.75V9.75H11.25V9H10.5V8.25H9.75V7.5H9V6.75H8.25V6Z" fill="white"/>
<path fill-rule="evenodd" clip-rule="evenodd" d="M9 1.5H6.75V2.25H6V3H4.5V3.75H3.75V4.5H3V6H2.25V6.75H1.5V9H0.75V15H1.5V17.25H2.25V18H3V19.5H3.75V20.25H4.5V21H6V21.75H6.75V22.5H9V23.25H15V22.5H17.25V21.75H18V21H19.5V20.25H20.25V19.5H21V18H21.75V17.25H22.5V15H23.25V9H22.5V6.75H21.75V6H21V4.5H20.25V3.75H19.5V3H18V2.25H17.25V1.5H15V0.75H9V1.5ZM9 1.5H15V2.25H17.25V3H18V3.75H19.5V4.5H20.25V6H21V6.75H21.75V9H22.5V15H21.75V17.25H21V18H20.25V19.5H19.5V20.25H18V21H17.25V21.75H15V22.5H9V21.75H6.75V21H6V20.25H4.5V19.5H3.75V18H3V17.25H2.25V15H1.5V9H2.25V6.75H3V6H3.75V4.5H4.5V3.75H6V3H6.75V2.25H9V1.5Z" fill="#131118" fill-opacity="0.04"/>
</g>
</g>
<defs>
<clipPath id="clip0_308_1897">
<rect width="24" height="24" fill="white"/>
</clipPath>
<clipPath id="clip1_308_1897">
<rect width="24" height="24" fill="white"/>
</clipPath>
</defs>
</svg>
