<svg width="307" height="64" viewBox="0 0 307 64" fill="none" xmlns="http://www.w3.org/2000/svg">
<path d="M21.0964 0C4.63649 0 0.666748 10.4569 0.666748 31.3707C0.666748 53.3495 4.63649 63.8064 21.0964 63.8064C37.9436 63.8064 42.107 53.3495 41.8165 31.2738C42.107 10.4569 38.0404 0 21.0964 0ZM21.0964 37.761C8.41259 37.761 2.11909 34.5658 2.11909 27.1104C2.11909 19.3646 8.60623 16.0726 20.9996 16.0726C34.0707 16.0726 40.2674 19.3646 40.2674 27.1104C40.2674 34.7595 34.2643 37.761 21.0964 37.761Z" fill="#131118"/>
<path d="M70.8975 53.8336C70.8975 44.829 57.8264 41.4402 57.8264 35.534C57.8264 33.9849 58.5041 32.6293 60.8279 32.6293C66.25 32.6293 71.672 40.0847 77.8687 40.0847C81.8385 40.0847 83.6781 37.3737 83.6781 34.2753C83.6781 29.6278 81.8385 27.3041 77.191 27.3041C70.4133 27.3041 66.8309 31.8548 61.1183 31.8548C56.2772 31.8548 54.2439 28.5628 54.2439 25.174C54.2439 18.9773 58.7946 17.4281 65.2817 17.4281C72.8339 17.4281 75.7386 19.4614 80.1925 19.4614C84.4527 19.4614 85.4209 15.0076 85.4209 12.3933C85.4209 4.55068 80.0956 0.290471 66.0563 0.290471C53.1789 0.290471 48.5313 5.13162 48.5313 11.4251C48.5313 18.2995 53.4693 21.3011 53.4693 26.1422C53.4693 32.823 46.7885 40.2784 46.7885 51.9939C46.7885 60.0303 51.7265 63.8064 58.6978 63.8064C66.1531 63.8064 70.8975 59.2557 70.8975 53.8336Z" fill="#131118"/>
<path d="M111.745 53.8336C111.745 44.829 98.6736 41.4402 98.6736 35.534C98.6736 33.9849 99.3513 32.6293 101.675 32.6293C107.097 32.6293 112.519 40.0847 118.716 40.0847C122.686 40.0847 124.525 37.3737 124.525 34.2753C124.525 29.6278 122.686 27.3041 118.038 27.3041C111.261 27.3041 107.678 31.8548 101.966 31.8548C97.1244 31.8548 95.0911 28.5628 95.0911 25.174C95.0911 18.9773 99.6418 17.4281 106.129 17.4281C113.681 17.4281 116.586 19.4614 121.04 19.4614C125.3 19.4614 126.268 15.0076 126.268 12.3933C126.268 4.55068 120.943 0.290471 106.904 0.290471C94.0261 0.290471 89.3785 5.13162 89.3785 11.4251C89.3785 18.2995 94.3165 21.3011 94.3165 26.1422C94.3165 32.823 87.6357 40.2784 87.6357 51.9939C87.6357 60.0303 92.5737 63.8064 99.545 63.8064C107 63.8064 111.745 59.2557 111.745 53.8336Z" fill="#131118"/>
<path d="M145.427 26.1422C137.487 26.1422 135.454 23.8185 135.454 20.5265C135.454 15.3949 140.586 13.652 148.622 13.652C157.82 13.652 161.403 15.4917 161.403 19.2678C161.403 23.528 155.981 26.1422 145.427 26.1422ZM149.203 63.8064C164.695 63.8064 170.698 56.7383 170.698 44.4418C170.698 32.823 166.244 29.8215 154.625 28.7564C153.463 28.6596 153.076 28.2723 153.076 27.5946C153.076 26.9168 153.463 26.4327 154.528 26.239C163.63 24.3026 168.277 21.882 168.277 12.2965C168.277 4.16339 162.855 0.193649 150.171 0.193649C135.261 0.193649 129.645 3.67927 129.645 10.5537C129.645 19.0741 135.841 21.6884 135.841 27.885C135.841 35.3404 128.677 40.472 128.677 50.0575C128.677 58.1906 134.97 63.8064 149.203 63.8064ZM148.332 29.2405C157.239 29.2405 161.5 31.177 161.5 35.4372C161.5 39.9879 157.143 41.8275 147.944 41.8275C140.295 41.8275 135.164 39.9879 135.164 35.7277C135.164 31.8548 138.746 29.2405 148.332 29.2405Z" fill="#131118"/>
<path d="M194.875 64C209.786 64 215.595 58.8684 215.595 49.3797C215.595 44.6354 213.755 39.7943 207.655 39.7943C202.911 39.7943 200.587 41.3434 194.487 41.3434C187.904 41.3434 182.191 39.8911 182.191 33.5008C182.191 30.112 183.837 27.5946 188.291 27.5946C194.294 27.5946 199.813 34.2753 205.525 34.2753C209.979 34.2753 212.012 31.8548 212.012 28.3691C212.012 24.0121 209.979 22.2693 205.332 22.2693C198.264 22.2693 194.584 26.6263 188.194 26.6263C183.74 26.6263 181.804 23.6248 181.804 20.5265C181.804 14.9107 186.645 13.4584 192.841 13.4584C200.587 13.4584 203.202 15.5885 207.946 15.5885C212.593 15.5885 213.562 12.2965 213.562 10.2632C213.562 3.87292 208.236 0.290471 194.1 0.290471C181.223 0.290471 176.091 3.67927 176.091 10.3601C176.091 18.59 181.997 21.3011 181.997 27.2073C181.997 32.7262 174.251 39.8911 174.251 49.767C174.251 58.1906 180.545 64 194.875 64Z" fill="#131118"/>
<path d="M241.535 0.0968217C222.267 0.0968217 222.267 10.6505 225.075 21.2042C228.754 36.7927 217.039 38.826 217.039 52.0908C217.039 60.1271 221.59 63.8064 228.27 63.8064C235.242 63.8064 239.792 59.8366 239.792 52.2844C239.792 41.5371 228.174 41.0529 228.174 35.9213C228.174 33.6944 230.207 32.0484 241.535 32.0484C252.863 32.0484 254.897 33.6944 254.897 35.9213C254.897 41.0529 243.278 41.5371 243.278 52.2844C243.278 59.8366 247.829 63.8064 254.8 63.8064C261.481 63.8064 266.031 60.1271 266.031 52.0908C266.031 38.826 254.316 36.7927 257.995 21.2042C260.803 10.6505 260.803 0.0968217 241.535 0.0968217ZM241.535 31.2738C230.788 31.2738 226.721 29.3374 226.721 24.7867C226.721 18.9773 231.466 17.525 241.535 17.525C251.605 17.525 256.349 18.9773 256.349 24.7867C256.349 29.3374 252.282 31.2738 241.535 31.2738Z" fill="#131118"/>
<path d="M287.305 25.9486C287.305 18.6868 290.016 17.525 293.211 17.525C296.794 17.525 299.311 19.2678 301.925 19.2678C305.702 19.2678 306.573 14.5235 306.573 11.7156C306.573 4.45386 302.797 0.387293 286.821 0.387293C270.942 0.387293 267.166 4.45386 267.166 11.7156C267.166 14.5235 267.941 19.2678 271.813 19.2678C274.428 19.2678 277.042 17.525 280.528 17.525C283.723 17.525 286.531 18.6868 286.531 25.9486C286.531 36.9864 272.685 36.2118 272.685 51.2194C272.685 60.4175 278.882 63.2254 286.821 63.2254C294.954 63.2254 301.054 60.4175 301.054 51.2194C301.054 36.2118 287.305 36.9864 287.305 25.9486Z" fill="#131118"/>
</svg>
